<svg width="30" height="30" viewBox="0 0 30 30" fill="none" xmlns="http://www.w3.org/2000/svg">
<path fill-rule="evenodd" clip-rule="evenodd" d="M19.5652 0C18.1245 0 16.9565 1.16795 16.9565 2.6087V10.4348C16.9565 11.8755 18.1245 13.0435 19.5652 13.0435H27.3913C28.832 13.0435 30 11.8755 30 10.4348V2.6087C30 1.16795 28.832 0 27.3913 0H19.5652ZM2.6087 16.9565C1.16795 16.9565 0 18.1245 0 19.5652V27.3913C0 28.832 1.16795 30 2.6087 30H10.4348C11.8755 30 13.0435 28.832 13.0435 27.3913V19.5652C13.0435 18.1245 11.8755 16.9565 10.4348 16.9565H2.6087ZM0 2.6087C0 1.16795 1.16795 0 2.6087 0H10.4348C11.8755 0 13.0435 1.16795 13.0435 2.6087V10.4348C13.0435 11.8755 11.8755 13.0435 10.4348 13.0435H2.6087C1.16795 13.0435 0 11.8755 0 10.4348V2.6087ZM27.3913 16.9565C28.1058 16.9565 28.7532 17.2437 29.2243 17.7091L24.4565 22.4768L23.3268 21.3471C22.6901 20.7104 21.6577 20.7104 21.021 21.3471C20.3843 21.9838 20.3843 23.0162 21.021 23.6529L23.3036 25.9355C23.9403 26.5722 24.9727 26.5722 25.6094 25.9355L30 21.5449V27.3913C30 28.832 28.832 30 27.3913 30H19.5652C18.1245 30 16.9565 28.832 16.9565 27.3913V19.5652C16.9565 18.1245 18.1245 16.9565 19.5652 16.9565H27.3913Z" fill="white"/>
</svg>
