<svg width="21" height="21" viewBox="0 0 21 21" fill="none" xmlns="http://www.w3.org/2000/svg">
<path fill-rule="evenodd" clip-rule="evenodd" d="M5.43973 0.0849609C5.99202 0.0849609 6.43973 0.532677 6.43973 1.08496C6.43973 1.63725 5.99202 2.08496 5.43973 2.08496H3.41421L7.73246 6.40321C8.12298 6.79373 8.12298 7.4269 7.73246 7.81742C7.34194 8.20795 6.70877 8.20795 6.31825 7.81742L2 3.49917L2 5.84182C2 6.3941 1.55228 6.84182 1 6.84182C0.447715 6.84182 0 6.3941 0 5.84182V1.08496C0 0.532676 0.447716 0.0849609 1 0.0849609H5.43973ZM15.3896 0.0849609C14.8374 0.0849609 14.3896 0.532677 14.3896 1.08496C14.3896 1.63725 14.8374 2.08496 15.3896 2.08496H17.4152L13.0969 6.40321C12.7064 6.79373 12.7064 7.4269 13.0969 7.81742C13.4874 8.20794 14.1206 8.20794 14.5111 7.81742L18.8294 3.49917V5.84182C18.8294 6.3941 19.2771 6.84182 19.8294 6.84182C20.3817 6.84182 20.8294 6.3941 20.8294 5.84182V1.08496C20.8294 0.532677 20.3817 0.0849609 19.8294 0.0849609H15.3896ZM20.8293 14.7212C20.8293 14.1689 20.3816 13.7212 19.8293 13.7212C19.2771 13.7212 18.8293 14.1689 18.8293 14.7212V16.7467L14.5111 12.4285C14.1206 12.038 13.4874 12.038 13.0969 12.4285C12.7064 12.819 12.7064 13.4522 13.0969 13.8427L17.4151 18.1609H15.0725C14.5202 18.1609 14.0725 18.6087 14.0725 19.1609C14.0725 19.7132 14.5202 20.1609 15.0725 20.1609H19.8293C20.3816 20.1609 20.8293 19.7132 20.8293 19.1609V14.7212ZM1.75314 14.4744C1.20085 14.4744 0.753138 14.9222 0.753138 15.4744L0.753138 19.9142C0.753138 20.4665 1.20085 20.9142 1.75314 20.9142H6.50999C7.06228 20.9142 7.50999 20.4665 7.50999 19.9142C7.50999 19.3619 7.06228 18.9142 6.50999 18.9142H4.16735L8.4856 14.5959C8.87612 14.2054 8.87612 13.5722 8.4856 13.1817C8.09507 12.7912 7.46191 12.7912 7.07138 13.1817L2.75314 17.5V15.4744C2.75314 14.9222 2.30542 14.4744 1.75314 14.4744Z" fill="white"/>
</svg>
