<svg width="44" height="42" viewBox="0 0 44 42" fill="none" xmlns="http://www.w3.org/2000/svg">
<path fill-rule="evenodd" clip-rule="evenodd" d="M6.79493 1.73646C4.48716 2.18833 2.56101 3.81812 1.84821 6.05908C-0.631781 13.8559 -0.624993 20.1597 1.92311 30.1935C2.59358 32.8337 4.82576 34.7842 7.52728 35.1332C16.7614 36.326 23.6776 36.4155 32.1035 35.6585C33.5589 35.5278 35.0593 37.2808 36.6245 39.1095C36.9986 39.5466 37.3763 39.9879 37.7581 40.4089C39.8492 42.7152 42.4412 40.8916 42.7805 37.797C43.8579 27.9707 43.9877 16.9265 42.7911 7.14809C42.4461 4.32945 40.2915 2.09033 37.5012 1.56317C26.3519 -0.543213 18.4987 -0.555184 6.79493 1.73646ZM14.5 17C15.8807 17 17 15.8807 17 14.5C17 13.1193 15.8807 12 14.5 12C13.1193 12 12 13.1193 12 14.5C12 15.8807 13.1193 17 14.5 17ZM26.5 17C27.8807 17 29 15.8807 29 14.5C29 13.1193 27.8807 12 26.5 12C25.1193 12 24 13.1193 24 14.5C24 15.8807 25.1193 17 26.5 17ZM28.2818 23.2208C28.7121 23.9287 28.4871 24.8514 27.7792 25.2818C21.2117 29.2741 15.9325 27.0433 13.9421 25.0635C13.3548 24.4792 13.3523 23.5295 13.9365 22.9421C14.5208 22.3548 15.4705 22.3523 16.0579 22.9365C17.102 23.9752 20.8711 25.9703 26.2208 22.7182C26.9287 22.2879 27.8514 22.5129 28.2818 23.2208Z" fill="url(#paint0_linear)"/>
<defs>
<linearGradient id="paint0_linear" x1="22" y1="10.5" x2="50.5" y2="55" gradientUnits="userSpaceOnUse">
<stop stop-color="#3C54B9"/>
<stop offset="1" stop-color="#72FFF7"/>
</linearGradient>
</defs>
</svg>
