<svg width="357" height="103" viewBox="0 0 357 103" fill="none" xmlns="http://www.w3.org/2000/svg">
<path fill-rule="evenodd" clip-rule="evenodd" d="M18.4746 3.88784C11.2276 5.25234 5.24966 10.5239 3.4023 17.6631C-1.18026 35.3726 -1.16153 50.3862 3.62785 72.9215C5.37781 81.1555 12.2201 87.326 20.5759 88.3473C42.3887 91.0135 59.182 91.1498 79.4687 89.3273C83.1146 88.9997 86.8733 93.3912 90.7942 97.9723C91.1659 98.4065 91.539 98.8424 91.9135 99.2762C98.018 106.345 105.541 101.388 106.489 92.0967C108.854 68.9176 109.12 43.2671 106.513 20.2123C105.556 11.7472 99.0937 5.01477 90.7116 3.49371C64.7333 -1.22042 45.6903 -1.23646 18.4746 3.88784ZM35.3707 42.5863C38.8295 42.5863 41.6334 39.7824 41.6334 36.3236C41.6334 32.8648 38.8295 30.0609 35.3707 30.0609C31.9119 30.0609 29.108 32.8648 29.108 36.3236C29.108 39.7824 31.9119 42.5863 35.3707 42.5863ZM65.4315 42.5863C68.8903 42.5863 71.6942 39.7824 71.6942 36.3237C71.6942 32.8649 68.8903 30.061 65.4315 30.061C61.9728 30.061 59.1689 32.8649 59.1689 36.3237C59.1689 39.7824 61.9728 42.5863 65.4315 42.5863ZM69.2476 58.5636C70.1082 59.9794 69.6582 61.8248 68.2424 62.6854C52.0979 72.4995 39.2545 66.9708 34.5074 62.2488C33.3328 61.0803 33.3278 59.1809 34.4962 58.0062C35.6647 56.8315 37.5642 56.8265 38.7389 57.995C41.5935 60.8345 51.4167 65.892 65.1257 57.5584C66.5415 56.6977 68.3869 57.1478 69.2476 58.5636Z" fill="url(#paint0_linear)"/>
<path d="M157.603 61.401C162.727 61.401 166.969 59.553 169.741 56.151L165.373 52.119C163.399 54.429 160.921 55.605 157.981 55.605C152.479 55.605 148.573 51.741 148.573 46.197C148.573 40.653 152.479 36.789 157.981 36.789C160.921 36.789 163.399 37.965 165.373 40.233L169.741 36.201C166.969 32.841 162.727 30.993 157.645 30.993C148.489 30.993 141.685 37.335 141.685 46.197C141.685 55.059 148.489 61.401 157.603 61.401ZM187.608 37.965C184.71 37.965 182.19 38.889 180.426 40.653V29.733H173.874V60.897H180.426V49.725C180.426 45.567 182.694 43.635 185.844 43.635C188.742 43.635 190.422 45.315 190.422 48.969V60.897H196.974V47.961C196.974 41.073 192.942 37.965 187.608 37.965ZM212.027 37.965C208.415 37.965 204.761 38.931 202.283 40.695L204.635 45.273C206.273 43.971 208.751 43.173 211.145 43.173C214.673 43.173 216.353 44.811 216.353 47.625H211.145C204.257 47.625 201.443 50.397 201.443 54.387C201.443 58.293 204.593 61.233 209.885 61.233C213.203 61.233 215.555 60.141 216.773 58.083V60.897H222.905V48.003C222.905 41.157 218.915 37.965 212.027 37.965ZM211.523 56.823C209.213 56.823 207.827 55.731 207.827 54.093C207.827 52.581 208.793 51.447 211.859 51.447H216.353V53.757C215.597 55.815 213.707 56.823 211.523 56.823ZM241.645 55.185C240.931 55.731 239.965 56.025 238.999 56.025C237.235 56.025 236.185 54.975 236.185 53.043V43.845H241.813V38.805H236.185V33.303H229.633V38.805H226.147V43.845H229.633V53.127C229.633 58.503 232.741 61.233 238.075 61.233C240.091 61.233 242.065 60.771 243.409 59.805L241.645 55.185Z" fill="#3C54B9"/>
<path d="M260.443 37.965C257.629 37.965 255.319 38.847 253.639 40.695V29.733H247.087V60.897H253.345V58.293C254.983 60.267 257.419 61.233 260.443 61.233C266.785 61.233 271.699 56.697 271.699 49.599C271.699 42.501 266.785 37.965 260.443 37.965ZM259.309 55.857C256.033 55.857 253.555 53.505 253.555 49.599C253.555 45.693 256.033 43.341 259.309 43.341C262.585 43.341 265.063 45.693 265.063 49.599C265.063 53.505 262.585 55.857 259.309 55.857ZM286.837 61.233C294.019 61.233 299.227 56.403 299.227 49.599C299.227 42.795 294.019 37.965 286.837 37.965C279.655 37.965 274.405 42.795 274.405 49.599C274.405 56.403 279.655 61.233 286.837 61.233ZM286.837 55.857C283.561 55.857 281.041 53.505 281.041 49.599C281.041 45.693 283.561 43.341 286.837 43.341C290.113 43.341 292.591 45.693 292.591 49.599C292.591 53.505 290.113 55.857 286.837 55.857ZM316.416 55.185C315.702 55.731 314.736 56.025 313.77 56.025C312.006 56.025 310.956 54.975 310.956 53.043V43.845H316.584V38.805H310.956V33.303H304.404V38.805H300.918V43.845H304.404V53.127C304.404 58.503 307.512 61.233 312.846 61.233C314.862 61.233 316.836 60.771 318.18 59.805L316.416 55.185Z" fill="black"/>
<defs>
<linearGradient id="paint0_linear" x1="54.6313" y1="25.9969" x2="125.107" y2="136.364" gradientUnits="userSpaceOnUse">
<stop stop-color="#3C54B9"/>
<stop offset="1" stop-color="#72FFF7"/>
</linearGradient>
</defs>
</svg>
