<svg width="22" height="21" viewBox="0 0 22 21" fill="none" xmlns="http://www.w3.org/2000/svg">
<path fill-rule="evenodd" clip-rule="evenodd" d="M0.481689 14.1778V3C0.481689 1.34315 1.82483 0 3.48169 0H7.71443H18.2758C19.9327 0 21.2758 1.34315 21.2758 3V14.0134V19.736C21.2758 20.627 20.1987 21.0731 19.5687 20.4432L17.182 18.0564C16.6194 17.4938 15.8563 17.1778 15.0607 17.1778H3.48169C1.82483 17.1778 0.481689 15.8346 0.481689 14.1778ZM4.90589 7.233C4.90589 6.68072 5.3536 6.233 5.90589 6.233H15.8509C16.4032 6.233 16.8509 6.68072 16.8509 7.233C16.8509 7.78529 16.4032 8.233 15.8509 8.233H5.90589C5.3536 8.233 4.90589 7.78529 4.90589 7.233ZM8.52267 10.8489C8.52267 10.2966 8.97039 9.84893 9.52267 9.84893H15.8513C16.4036 9.84893 16.8513 10.2966 16.8513 10.8489C16.8513 11.4012 16.4036 11.8489 15.8513 11.8489H9.52267C8.97039 11.8489 8.52267 11.4012 8.52267 10.8489Z" fill="#3C54B9"/>
</svg>
