<svg width="30" height="29" viewBox="0 0 30 29" fill="none" xmlns="http://www.w3.org/2000/svg">
<path fill-rule="evenodd" clip-rule="evenodd" d="M8 0C6.89543 0 6 0.895431 6 2H24C24 0.895431 23.1046 0 22 0H8ZM5 3C3.89543 3 3 3.89543 3 5V6H27V5C27 3.89543 26.1046 3 25 3H5ZM0 10C0 8.34315 1.34315 7 3 7H27C28.6569 7 30 8.34315 30 10V26C30 27.6569 28.6569 29 27 29H3C1.34315 29 0 27.6569 0 26V10ZM16.5 12C17.091 12 17.6761 12.1164 18.2221 12.3425C18.768 12.5687 19.2641 12.9002 19.682 13.318C20.0998 13.7359 20.4313 14.232 20.6575 14.7779C20.8836 15.3239 21 15.9091 21 16.5H16.5V12ZM20 18C20 18.9889 19.7068 19.9556 19.1574 20.7779C18.6079 21.6001 17.827 22.241 16.9134 22.6194C15.9998 22.9978 14.9945 23.0969 14.0246 22.9039C13.0546 22.711 12.1637 22.2348 11.4645 21.5355C10.7652 20.8363 10.289 19.9454 10.0961 18.9755C9.90315 18.0055 10.0022 17.0002 10.3806 16.0866C10.759 15.173 11.3999 14.3921 12.2222 13.8427C13.0444 13.2932 14.0111 13 15 13V18H20Z" fill="#3C54B9"/>
</svg>
