<svg width="18" height="20" viewBox="0 0 18 20" fill="none" xmlns="http://www.w3.org/2000/svg">
<path fill-rule="evenodd" clip-rule="evenodd" d="M11.8929 4.83871C11.8929 6.44212 10.5977 7.74194 9 7.74194C7.40231 7.74194 6.10714 6.44212 6.10714 4.83871C6.10714 3.2353 7.40231 1.93548 9 1.93548C10.5977 1.93548 11.8929 3.2353 11.8929 4.83871ZM13.8214 4.83871C13.8214 7.51103 11.6628 9.67742 9 9.67742C6.33722 9.67742 4.17857 7.51103 4.17857 4.83871C4.17857 2.16636 6.33722 0 9 0C11.6628 0 13.8214 2.16636 13.8214 4.83871ZM1.92857 20C1.92857 16.2587 4.95065 13.2258 8.67857 13.2258C12.4065 13.2258 15.4286 16.2587 15.4286 20H17.3571C17.3571 15.1898 13.4716 11.2903 8.67857 11.2903C3.88553 11.2903 0 15.1898 0 20H1.92857Z" fill="white"/>
</svg>
