<svg width="20" height="20" viewBox="0 0 20 20" fill="none" xmlns="http://www.w3.org/2000/svg">
<path fill-rule="evenodd" clip-rule="evenodd" d="M10.4511 0.298923C10.4331 0.280683 10.4145 0.263127 10.3952 0.2463C10.2972 0.160639 10.1864 0.0973213 10.0696 0.0563485C9.71818 -0.0668627 9.31173 0.0119855 9.03082 0.292893L4.59252 4.7312C4.20199 5.12172 4.20199 5.75489 4.59252 6.14541C4.98304 6.53593 5.61621 6.53593 6.00673 6.14541L8.73807 3.41407V12.0959C8.73807 12.6481 9.18578 13.0959 9.73807 13.0959C10.2904 13.0959 10.7381 12.6481 10.7381 12.0959V3.41436L13.4691 6.14541C13.8596 6.53593 14.4928 6.53593 14.8833 6.14541C15.2739 5.75489 15.2739 5.12172 14.8833 4.7312L10.4511 0.298923ZM1 8.87687C1.55228 8.87687 2 9.32459 2 9.87687V15.6148C2 16.7194 2.89543 17.6148 4 17.6148H15.4758C16.5804 17.6148 17.4758 16.7194 17.4758 15.6148V9.87687C17.4758 9.32459 17.9235 8.87687 18.4758 8.87687C19.0281 8.87687 19.4758 9.32459 19.4758 9.87687V15.6148C19.4758 17.8239 17.685 19.6148 15.4758 19.6148H4C1.79086 19.6148 0 17.8239 0 15.6148V9.87687C0 9.32459 0.447715 8.87687 1 8.87687Z" fill="#3C54B9"/>
</svg>
