<svg width="21" height="21" viewBox="0 0 21 21" fill="none" xmlns="http://www.w3.org/2000/svg">
<path fill-rule="evenodd" clip-rule="evenodd" d="M18.2438 8.02535C18.7961 8.02535 19.2438 7.57764 19.2438 7.02535C19.2438 6.47307 18.7961 6.02535 18.2438 6.02535L16.2182 6.02535L20.5365 1.70711C20.927 1.31658 20.927 0.683418 20.5365 0.292893C20.146 -0.0976311 19.5128 -0.0976311 19.1223 0.292893L14.804 4.61114V2.2685C14.804 1.71621 14.3563 1.26849 13.804 1.26849C13.2518 1.26849 12.804 1.71621 12.804 2.26849V7.02535C12.804 7.57764 13.2517 8.02535 13.804 8.02535H18.2438ZM12.8041 17.4905C12.8041 18.0428 13.2518 18.4905 13.8041 18.4905C14.3564 18.4905 14.8041 18.0428 14.8041 17.4905V15.465L19.1223 19.7832C19.5128 20.1738 20.146 20.1738 20.5365 19.7832C20.9271 19.3927 20.9271 18.7596 20.5365 18.369L16.2183 14.0508H18.5609C19.1132 14.0508 19.5609 13.6031 19.5609 13.0508C19.5609 12.4985 19.1132 12.0508 18.5609 12.0508H13.8041C13.2518 12.0508 12.8041 12.4985 12.8041 13.0508V17.4905ZM7.77861 19.2434C8.33089 19.2434 8.77861 18.7957 8.77861 18.2434V13.8037C8.77861 13.2514 8.33089 12.8037 7.77861 12.8037L3.02175 12.8037C2.46946 12.8037 2.02175 13.2514 2.02175 13.8037C2.02175 14.356 2.46946 14.8037 3.02175 14.8037H5.36439L1.04615 19.122C0.655622 19.5125 0.655622 20.1456 1.04615 20.5362C1.43667 20.9267 2.06984 20.9267 2.46036 20.5362L6.77861 16.2179V18.2434C6.77861 18.7957 7.22632 19.2434 7.77861 19.2434ZM2.58574 8.02535C2.03346 8.02535 1.58574 7.57764 1.58574 7.02535C1.58574 6.47307 2.03346 6.02535 2.58574 6.02535H4.61126L0.293015 1.70711C-0.097509 1.31658 -0.0975091 0.683418 0.293015 0.292893C0.68354 -0.0976306 1.3167 -0.0976307 1.70723 0.292894L6.02548 4.61114V2.2685C6.02548 1.71621 6.47319 1.26849 7.02548 1.26849C7.57776 1.26849 8.02548 1.71621 8.02548 2.26849L8.02548 7.02535C8.02548 7.57764 7.57776 8.02535 7.02548 8.02535L2.58574 8.02535Z" fill="white"/>
</svg>
